/* XPM */
static char *hd_png__1_1653600210[] = {
/* columns rows colors chars-per-pixel */
"49 40 139 2 ",
"   c #846E00",
".  c #867100",
"X  c #8A7400",
"o  c #8E7901",
"O  c #907700",
"+  c #927C00",
"@  c #997E02",
"#  c #937E08",
"$  c #978103",
"%  c #9D8402",
"&  c #9E870D",
"*  c #9E880D",
"=  c #9A8611",
"-  c #A18401",
";  c #A98603",
":  c #A58B03",
">  c #AA8E02",
",  c #A48C09",
"<  c #AC9202",
"1  c #AD930C",
"2  c #B29404",
"3  c #BB9404",
"4  c #B69C03",
"5  c #BC9D03",
"6  c #B2960E",
"7  c #AE9510",
"8  c #A7931E",
"9  c #B09712",
"0  c #B69B1C",
"q  c #BDA102",
"w  c #BCA21D",
"e  c #A69223",
"r  c #AA9525",
"t  c #A9962A",
"y  c #AF9C32",
"u  c #BBA323",
"i  c #BEA42A",
"p  c #BEA736",
"a  c #C39503",
"s  c #D19F02",
"d  c #C0A704",
"f  c #CCA003",
"g  c #C6A903",
"h  c #CBAC00",
"j  c #DBA502",
"k  c #D1AC01",
"l  c #CBB101",
"z  c #D5B501",
"x  c #D9B500",
"c  c #D2B804",
"v  c #DCBA00",
"b  c #E3AE01",
"n  c #E3B502",
"m  c #E2BE00",
"M  c #EDBB01",
"N  c #C2A827",
"B  c #C2A92A",
"V  c #C8AF33",
"C  c #CBB236",
"Z  c #DCC203",
"A  c #E3C000",
"S  c #EAC300",
"D  c #EDCC01",
"F  c #F3C501",
"G  c #F1CF00",
"H  c #F9CD01",
"J  c #EDD101",
"K  c #F4D301",
"L  c #F9D401",
"P  c #F6D901",
"I  c #FADD01",
"U  c #B8A84D",
"Y  c #BFAE53",
"T  c #CDB64F",
"R  c #CFBB4D",
"E  c #D4BE4F",
"W  c #C3B154",
"Q  c #CDB856",
"!  c #C1B25B",
"~  c #C9B65A",
"^  c #C4B564",
"/  c #C9BE7D",
"(  c #D7C254",
")  c #D9C354",
"_  c #D9C65B",
"`  c #DECA64",
"'  c #DAC568",
"]  c #DBCB7D",
"[  c #E2CD68",
"{  c #CEC383",
"}  c #D5C788",
"|  c #D9CC8C",
" . c #DBD09D",
".. c #E2D383",
"X. c #EADB8B",
"o. c #ECDE9D",
"O. c #DDD4A2",
"+. c #ECDFA4",
"@. c #E3DAAE",
"#. c #E9DCAA",
"$. c #E5DFBE",
"%. c #F2E5A3",
"&. c #F2E7AA",
"*. c #F6ECAF",
"=. c #EFE4B1",
"-. c #E9E2BD",
";. c #F0E7BE",
":. c #F3EABC",
">. c #FAF0BA",
",. c #E7E1C2",
"<. c #EBE3C2",
"1. c #E9E5CB",
"2. c #EFE9CA",
"3. c #F6EDC2",
"4. c #F5EECB",
"5. c #FAF2C1",
"6. c #FFF8CA",
"7. c #EEE9D4",
"8. c #F3ECD4",
"9. c #F2EFDD",
"0. c #FBF5D4",
"q. c #F9F4DA",
"w. c #FDF9DD",
"e. c #EEEEEE",
"r. c #F1EFE4",
"t. c #F0EFED",
"y. c #F6F2E0",
"u. c #F9F7E4",
"i. c #F2F1EE",
"p. c #FAF7EB",
"a. c #FCFBEC",
"s. c #EEEEF1",
"d. c #EFF1FA",
"f. c #F4F4F4",
"g. c #F8F7F6",
"h. c #FAFAF7",
"j. c #F4F6FC",
"k. c #F7F9FE",
"l. c #FAFBFB",
/* pixels */
"l.f.l.f.f.l.e.l.e.l.f.f.l.e.l.f.g.f.f.l.e.l.i.g.f.f.l.e.l.e.l.f.f.l.e.l.s.l.l.f.l.e.l.e.l.f.f.l.e.",
"e.l.f.f.l.f.l.t.l.f.f.l.e.l.i.l.f.f.g.i.l.s.l.j.j.k.d.l.i.l.f.f.g.f.l.s.l.f.f.l.f.l.t.l.f.f.g.f.l.",
"l.f.f.f.f.l.f.l.f.l.l.f.g.f.l.f.g.g.j.l.l.a.0.4.4.4.q.a.l.l.k.f.f.g.f.l.f.g.f.f.l.f.l.f.l.f.f.l.f.",
"f.f.f.l.f.f.f.f.f.f.f.f.f.f.f.f.k.l.0.X.R B 9 , , , 9 u ( X.0.l.j.f.f.f.f.f.f.f.f.f.f.f.f.f.f.f.f.",
"e.l.f.f.f.f.l.f.l.f.f.f.f.l.f.l.:.( 6 + X . o o O O o X . + 1 _ 5.k.k.f.k.f.g.f.f.l.f.g.f.f.f.f.l.",
"l.f.l.f.f.l.e.l.e.l.f.f.f.j.a.` < X X $ < 5 g h h k k s a ; o . : [ q.l.e.g.g.f.l.e.l.f.l.f.f.l.e.",
"e.l.f.f.f.f.l.e.l.f.f.l.f.6.N O X % q z v v m v m v v m m M b 3 o X B 3.l.f.f.l.e.l.s.l.f.f.l.e.l.",
"l.f.l.f.f.l.f.l.e.l.f.j.>.9 X # 4 c m v v z z x x x x z v x m F n :   6 =.l.f.f.l.e.l.f.l.f.f.l.e.",
"f.l.f.f.g.d.l.f.l.f.j.5.6 . % g v v v v S K K J K K K K m v v z S F 3   1 :.l.g.f.l.i.l.f.g.g.f.l.",
"f.f.g.f.f.g.f.f.f.f.w.w . % l m v v v m P l l l l h l h x v v v x v L 5   0 q.g.f.f.g.f.f.f.f.g.f.",
"g.f.f.l.f.g.f.g.f.l.( X $ h v v v v c A J X X X X X X X h m v v v v v L 2   T l.j.f.g.f.j.g.f.g.f.",
"s.l.f.f.g.f.l.i.l.%.% o q m v v v v v A J $ o $ + + + $ h v v v v v v m G @ + +.k.g.s.l.f.f.g.f.l.",
"l.f.l.f.f.l.i.l.p.V X : v v v v v v v A J + o + + + + + h m v v v v v x K z   p h.f.l.f.g.f.f.l.e.",
"e.l.f.f.g.f.l.j.*.% o g v v v v v v v A J $ + + + + o $ h v v v v v v v v K ; O #.l.e.l.f.g.k.s.l.",
"l.e.l.f.f.l.e.l._ X : v v v v v v v v m J o o o + o + + h v v v v v v v x G c   ~ g.g.i.k.f.f.l.f.",
"f.l.f.f.f.f.k.u.u X q v v v v v v v c A J $ $ $ o $ + + h v v v v v v v v m D o e p.f.l.f.f.g.f.l.",
"j.f.f.g.f.g.k.3.: o h m v v v v v v v A J + + + o + $ o l Z v v v v v v v x P > + <.l.f.g.g.f.f.g.",
"h.f.g.f.f.f.k.%.+ @ z v v v v v v v v A J + + + + + o $ h v v v v v v v v x K q X  .l.f.g.f.f.g.f.",
"e.l.f.g.g.s.l...+ - x v v v v v v v v m J $ o $ + o $ o h v v v v v v v v x L h   { j.l.f.f.g.f.l.",
"l.s.g.g.f.l.j...o : v v v v v v v v v A J $ o o o $ o $ h v v v v v v v v x D c   ] l.e.l.f.f.l.e.",
"e.l.f.g.g.e.l.] o : v v v v v v v v v m J + + + $ o + + h m v v v v v v v z K c   { j.l.f.f.l.t.l.",
"l.f.g.f.f.h.k.X.o ; v v v v v v v v v A J + o + o + + + h m v v v v v v v x K l   { l.t.l.g.f.l.s.",
"f.g.f.g.g.s.l.o.@ % n v v v v v v v c A J @ + + + o + + h m v v v v v v v x K q   O.j.g.f.f.l.f.l.",
"f.j.f.g.g.g.k.3.- @ b v v v v v v v v m J + + + o $ + + h v x v v v v v v v P > # ,.k.f.f.f.f.f.g.",
"l.i.g.j.f.l.i.a.u . j m v v v v v v v A J + + + $ o o $ l Z v v v v v v v A J + e y.l.f.g.f.f.l.s.",
"e.l.f.f.g.s.l.g._ X 3 S v v v v v v c A J $ o o o $ o $ g v v v v v v v z K c   Y l.e.l.f.g.g.s.l.",
"l.i.l.g.f.l.e.l.&.% @ M v v v v v v v A J + + + $ $ o $ h v v v v v v v v P : o @.k.l.e.l.f.f.l.e.",
"s.l.f.f.l.i.l.s.h.C   f F z v v v v v A J $ o + o o $ o h v v v v v m x G v . y f.l.e.l.f.j.l.s.l.",
"l.i.l.g.f.l.s.l.k.%.% o M m v v v v v m J + + + + + + + h v v v v v c A P % X O.l.s.l.f.g.g.f.l.f.",
"f.g.f.f.f.f.g.f.g.h.( . > H v x v v v m D @ + + + + + + h m v v v v v I 4 . Y l.f.g.f.f.f.g.f.f.g.",
"f.j.f.g.j.f.g.f.g.j.q.w   a L m v v v v m h g h g g g h x v v v v v I d . e 9.g.f.g.f.g.f.g.f.f.l.",
"l.f.g.f.f.l.i.l.s.g.k.:.1 . 5 L A x v v v m m v m m A v v v v x D I q . * -.k.f.l.s.l.f.g.g.f.l.e.",
"e.l.f.f.l.e.l.f.l.f.f.l.=.1   > D L m z x x v v v v x v x x m P J 1   * -.k.f.g.s.l.e.l.f.g.l.e.l.",
"l.i.l.g.f.l.e.l.s.g.j.i.l.3.i . O g K L D A v v x v v m D P K l + . r 4.j.g.f.f.l.e.l.e.l.f.f.l.e.",
"e.l.f.f.g.s.l.e.l.f.f.g.i.l.y.' %   + q v D P P P P P J Z q +   $ ^ p.j.g.f.f.g.f.l.e.l.f.g.g.s.l.",
"l.i.g.j.f.l.f.l.f.g.g.f.l.i.k.k.3.Q & X   + % : < : - O .   & Y ,.l.f.f.f.j.g.f.l.f.l.f.f.g.f.l.f.",
"f.g.f.g.j.f.f.f.g.f.g.f.f.g.f.f.k.l.8.| W r = $ # # = t U | 7.l.l.f.f.f.l.f.g.g.f.f.f.j.f.f.g.f.f.",
"f.g.f.f.g.f.l.f.g.f.f.g.f.g.f.g.f.f.k.l.l.i.9.1.1.1.7.p.k.l.k.f.f.f.l.f.g.f.g.f.f.l.f.l.f.g.g.f.l.",
"l.i.g.f.f.l.e.l.f.j.g.f.l.f.l.d.g.f.f.g.s.l.j.l.l.j.l.f.l.f.f.f.f.l.s.l.f.f.f.f.l.e.l.i.g.g.f.l.f.",
"e.l.f.j.l.e.l.e.l.i.g.g.e.l.e.l.f.f.l.f.l.e.l.i.f.g.s.l.e.l.f.f.g.s.l.e.l.f.g.l.s.l.e.l.i.j.g.s.l."
};
