/* XPM */
static char *_8655ba5eac94ce99a2951f090f40344HBN5S7gldyIYreEI[] = {
/* columns rows colors chars-per-pixel */
"43 50 209 2 ",
"   c None",
".  c #0E0E0D",
"X  c #0F0F0D",
"o  c #10100E",
"O  c #111110",
"+  c #121210",
"@  c #121211",
"#  c #131311",
"$  c #131312",
"%  c #141412",
"&  c #151512",
"*  c #161613",
"=  c #161614",
"-  c #171715",
";  c #181816",
":  c #191916",
">  c #1A1A17",
",  c #1B1B18",
"<  c #1B1B19",
"1  c #1C1C19",
"2  c #1C1C1A",
"3  c #1D1D1A",
"4  c #1E1E1B",
"5  c #1F1F1C",
"6  c #20201D",
"7  c #21211D",
"8  c #21211E",
"9  c #22221E",
"0  c #232320",
"q  c #242421",
"w  c #262622",
"e  c #272723",
"r  c #282824",
"t  c #2C2C27",
"y  c #31312D",
"u  c #3E3D37",
"i  c #3F3E38",
"p  c #403F39",
"a  c #41403A",
"s  c #42413B",
"d  c #43423B",
"f  c #43423C",
"g  c #43433C",
"h  c #44433C",
"j  c #44433D",
"k  c #45453E",
"l  c #46453E",
"z  c #46453F",
"x  c #47463F",
"c  c #474640",
"v  c #474740",
"b  c #484740",
"n  c #484741",
"m  c #484841",
"M  c #494841",
"N  c #494941",
"B  c #4A4942",
"V  c #4A4A43",
"C  c #4B4A43",
"Z  c #4C4B44",
"A  c #4D4D45",
"S  c #4D4D46",
"D  c #4E4D46",
"F  c #4E4E46",
"G  c #4F4E46",
"H  c #4F4E47",
"J  c #4F4F47",
"K  c #504F47",
"L  c #504F48",
"P  c #505048",
"I  c #515048",
"U  c #515049",
"Y  c #515149",
"T  c #525149",
"R  c #52514A",
"E  c #52524A",
"W  c #53524A",
"Q  c #54534B",
"!  c #56554D",
"~  c #56564D",
"^  c #57564E",
"/  c #57574E",
"(  c #595850",
")  c #595951",
"_  c #5A5950",
"`  c #5A5951",
"'  c #5A5A51",
"]  c #5B5A51",
"[  c #5B5A52",
"{  c #5C5B52",
"}  c #5C5B53",
"|  c #5C5C53",
" . c #5D5C53",
".. c #5D5D54",
"X. c #5E5D54",
"o. c #5E5E54",
"O. c #5F5E55",
"+. c #5F5F56",
"@. c #626158",
"#. c #626258",
"$. c #636259",
"%. c #636359",
"&. c #646359",
"*. c #64635A",
"=. c #64645A",
"-. c #65645B",
";. c #66655C",
":. c #66665C",
">. c #67665C",
",. c #67675D",
"<. c #69695F",
"1. c #6A695F",
"2. c #6A6A5F",
"3. c #6C6C61",
"4. c #6D6D62",
"5. c #6F6F64",
"6. c #707065",
"7. c #717065",
"8. c #717166",
"9. c #727166",
"0. c #727266",
"q. c #727267",
"w. c #737367",
"e. c #737368",
"r. c #747469",
"t. c #757569",
"y. c #75756A",
"u. c #76756A",
"i. c #76766A",
"p. c #76766B",
"a. c #77776B",
"s. c #78786C",
"d. c #78786D",
"f. c #79796D",
"g. c #7A7A6E",
"h. c #7B7B6F",
"j. c #7C7C6F",
"k. c #7C7C70",
"l. c #7D7D71",
"z. c #7E7D71",
"x. c #7E7E72",
"c. c #7F7F73",
"v. c #808073",
"b. c #818174",
"n. c #828275",
"m. c #838376",
"M. c #848376",
"N. c #848377",
"B. c #858577",
"V. c #868578",
"C. c #868679",
"Z. c #88887A",
"A. c #89887B",
"S. c #8A8A7C",
"D. c #8B8A7C",
"F. c #8B8A7D",
"G. c #8C8B7D",
"H. c #8C8C7E",
"J. c #8E8E80",
"K. c #909081",
"L. c #909082",
"P. c #919182",
"I. c #989889",
"U. c #9C9C8D",
"Y. c #9D9D8D",
"T. c #9E9E8F",
"R. c #9F9F90",
"E. c #A6A696",
"W. c #A7A796",
"Q. c #A8A897",
"!. c #A9A998",
"~. c #AAA999",
"^. c #AAAA99",
"/. c #AFAF9E",
"(. c #B1B19F",
"). c #B2B2A0",
"_. c #B5B4A3",
"`. c #B8B8A6",
"'. c #BBBBA8",
"]. c #BDBDAA",
"[. c #BDBDAB",
"{. c #BEBEAB",
"}. c #BEBEAC",
"|. c #BFBFAC",
" X c #C0C0AD",
".X c #C1C1AD",
"XX c #C1C1AE",
"oX c #C2C2AE",
"OX c #C2C2AF",
"+X c #C3C3B0",
"@X c #C5C5B1",
"#X c #C6C6B2",
"$X c #C6C6B3",
"%X c #C7C6B3",
"&X c #C8C8B4",
"*X c #C9C9B5",
"=X c #CACAB6",
"-X c #CBCBB7",
";X c #CDCDB9",
":X c #D0D0BC",
">X c #D1D1BC",
",X c #D3D3BE",
"<X c #D4D4BF",
"1X c #D5D5C0",
"2X c #D7D7C1",
"3X c #D7D7C2",
"4X c #D8D8C2",
"5X c #D8D8C3",
"6X c #D9D9C3",
/* pixels */
"                                                                                      ",
"                                                                                      ",
"                                                                                      ",
"                                                                                      ",
"                                                                                      ",
"                  =X| p a a a a a a a p a a p i a a a p p                             ",
"                  =X| ! 2.2.2.2.2.2.2.2.3.3.2.3.3.2.3.X.s                             ",
"                  =X| #.9.X.} } X.X.#.p.=.} _ X.| X.3.5.s                             ",
"                  =X| #.;.c =.! E m c 9.H E #.E H s _ 4.h                             ",
"                  =X| #.#._ +XJ.s.;.m e.G D.'.d.d.E _ 4.s                             ",
"                  =X| #.=._ @XK.d.,.m e.G D.[.k.d.E _ 4.h                             ",
"                  =X| #.=._ @XK.h.;.c e.G D.[.k.d.E _ 4.a                             ",
"                  =X| #.=._ @XK.d.2.x 9.G D.[.k.d.E _ 4.h                             ",
"                  =X| #.=._ @XK.j.;.m 9.G D.[.k.d.E _ 4.h                             ",
"                  =X| #.=._ @XK.j.,.m p.G D.[.j.d.Q _ 4.u                             ",
"                  =X| #.=._ @XK.d.=.m 9.G D.[.j.d.E _ =.4                             ",
"                  =X| #.=._ %XK.j.>.m w.G D.[.k.d.E _ =.; %                           ",
"                  =X| #.=._ @XK.d.>.b w.G A.[.k.d.E _ #.; & &                         ",
"                  =X| #.=._ @XJ.j.,.m w.G D.|.l.d.E } &.; @ @ @                       ",
"                  =X| #.=._ %XJ.d.,.b w.} Z.!.6.4.C E _ , r t 7 &                     ",
"                  =X| &.=.} XXJ.f.,.b p.(.f.w 7 6 < , 4 7 T.XXk.; %                   ",
"                  =X| @.&.x &.^ L b z p.[.p.o % % % @ % - s E.@XN.; %                 ",
"                  =X| @.6.| | | X.X.#.f.[.p.o % % % % % @ @ G R.&Xs.r o               ",
"                  =X| @.p.2.2.2.1.1.3.j.{.p.o & % % % % % % o m T.I.y o ! <X          ",
"                  =X| #.;.z E m x z m p.|.r.@ % % % % % % % % & ; ; & 4 ;.<X          ",
"                  =X| #.=.! _.C.0.#.m p.|.p.o % % % % % % % % & & & - p.&X<X          ",
"                  =X| @.=._ @XK.h.,.m p.|.e.o o @ o @ @ % % % % @ ; l.XX2X            ",
"                  =X| @.=._ @XK.h.;.m p.}.E.0.p.r.p.p.X.; % % @ q 9.@X5X              ",
"                  =X| @.=._ @XK.d.=.m p.U.XX:X[.[.(.oX^.< @ o r ;.;X3X                ",
"                  =X| &.=._ @XK.h.,.m 0.E G.[.v.h.E C.!.4 % 5 4.>X>X                  ",
"                  =X| #.=._ @XK.j.>.m w.G A.[.j.d.I N.Q.4 ; v.=X3X                    ",
"                  =X| #.=._ @XK.d.,.m w.G G.[.j.d.I N.Q.9 B.XX2X                      ",
"                  =X| #.=._ @XK.d.>.b w.K A.[.k.d.K n.XXn.%X3X                        ",
"                  =X| #.=._ @XK.j.,.m w.K D.[.k.d.E p.`./.=X                          ",
"                  =X| #.=._ @XK.d.,.m 9.G D.[.j.d.I } 4.z                             ",
"                  =X| #.=._ @XK.j.,.m e.G A.[.l.d.I } 4.h                             ",
"                  =X| #.&._ %XK.d.2.m 9.K D.|.l.j.T _ 4.d                             ",
"                  =X| #.=.Z n.,.} E b 9.K &.z.| } x _ 4.d                             ",
"                  =X| #.4.L H L I K ! p.} K K K I K =.4.h                             ",
"                  =X} } e.9.9.9.9.9.9.w.9.9.6.w.9.9.w.,.a                             ",
"                  =XO.x m C C b C C C b C C C C B C C C h                             ",
"                  >X).!.^.^.^.^.^.^.~.~.~.~.^.^.~.^.Q.^.^.                            ",
"                    5X5X6X5X6X6X6X6X5X5X6X5X5X5X6X6X6X6X                              ",
"                                                                                      ",
"                                                                                      ",
"                                                                                      ",
"                                                                                      ",
"                                                                                      ",
"                                                                                      ",
"                                                                                      "
};
