/* XPM */
static char *e4e27c40e1784197a928894bbdd329cdKpiDEKv1wMGQjo4b[] = {
/* columns rows colors chars-per-pixel */
"50 43 204 2 ",
"   c #4F1800",
".  c #551D00",
"X  c #551900",
"o  c #5D2500",
"O  c #5E2900",
"+  c #552600",
"@  c #5F3100",
"#  c #602700",
"$  c #622B00",
"%  c #792701",
"&  c #663200",
"*  c #6A3501",
"=  c #6D3805",
"-  c #6F3C0A",
";  c #713D0B",
":  c #794615",
">  c #822F07",
",  c #85330B",
"<  c #EB020B",
"1  c #F20001",
"2  c #FE110C",
"3  c #EC0B15",
"4  c #EA0B15",
"5  c #EC141D",
"6  c #EF191F",
"7  c #F51215",
"8  c #F3161A",
"9  c #F61617",
"0  c #F90F10",
"q  c #DB192F",
"w  c #EC1621",
"e  c #EC1A24",
"r  c #EB1E28",
"t  c #E31F2F",
"y  c #E21F30",
"u  c #D7253F",
"i  c #EB222A",
"p  c #EA2C2D",
"a  c #F32A25",
"s  c #E92F31",
"d  c #E12536",
"f  c #E93035",
"g  c #89471B",
"h  c #89521F",
"j  c #8C5623",
"k  c #8F5926",
"l  c #835628",
"z  c #945D2B",
"x  c #915926",
"c  c #8B5E33",
"v  c #A5532C",
"b  c #8B633B",
"n  c #9B6432",
"m  c #9A6836",
"M  c #97602D",
"N  c #A06531",
"B  c #B4386C",
"V  c #CE2949",
"C  c #EC3940",
"Z  c #926D48",
"A  c #9D7C5C",
"S  c #997755",
"D  c #926D49",
"F  c #B57C4A",
"G  c #A07D5C",
"H  c #A07A57",
"J  c #EB4D54",
"K  c #EB6A6F",
"L  c #EA666D",
"P  c #F06162",
"I  c #EA6D72",
"U  c #EE7277",
"Y  c #EF757A",
"T  c #F1757A",
"R  c yellow",
"E  c #CFD23F",
"W  c #D3D53A",
"Q  c #E5E122",
"!  c #BC8352",
"~  c #B8804E",
"^  c #B7BD5F",
"/  c #A38363",
"(  c #B0987F",
")  c #B5A865",
"_  c #A5AF78",
"`  c #C88F5F",
"'  c #C68D5C",
"]  c #D59B6B",
"[  c #D89C6A",
"{  c #CE9564",
"}  c #E48E68",
"|  c #EC9570",
" . c #DCA273",
".. c #DFA87D",
"X. c #E2A675",
"o. c #E2A779",
"O. c #E3AA7A",
"+. c #E9AF7F",
"@. c #E5A976",
"#. c #E1A16D",
"$. c #CCCD43",
"%. c #7D4CB3",
"&. c #7C54B5",
"*. c #385DF1",
"=. c #3E62F2",
"-. c #3B6CFF",
";. c #3C66FD",
":. c #3877FF",
">. c #2C7EFF",
",. c #485CCB",
"<. c #6C59CA",
"1. c #725BC1",
"2. c #5164CA",
"3. c #4F6FEF",
"4. c #4164EF",
"5. c #516BEB",
"6. c #586FE8",
"7. c #4C6DF2",
"8. c #4366FD",
"9. c #4568FB",
"0. c #4B6FFB",
"q. c #4366F2",
"w. c #4975FC",
"e. c #5373F1",
"r. c #5A79F1",
"t. c #637FF0",
"y. c #647CE5",
"u. c #954894",
"i. c #99468F",
"p. c #874DA5",
"a. c #8451AA",
"s. c #925BA2",
"d. c #D57188",
"f. c #EA7A80",
"g. c #6A84ED",
"h. c #6581F4",
"j. c #7992F3",
"k. c #8D9D9A",
"l. c #B39D86",
"z. c #9AA688",
"x. c #B3A088",
"c. c #C29C89",
"v. c #EC858A",
"b. c #EB8D91",
"n. c #F08F94",
"m. c #E8AE80",
"M. c #E5B185",
"N. c #EBB282",
"B. c #F5BA8B",
"V. c #F0B686",
"C. c #EA9EA2",
"Z. c #C9B8A8",
"A. c #EDAFB2",
"S. c #EAB9BA",
"D. c #F5B5B8",
"F. c #E9ABAB",
"G. c #D2C5B9",
"H. c #CFC1B3",
"J. c #EECDB1",
"K. c #E9CFBC",
"L. c #EAD1BD",
"P. c #F0D4BE",
"I. c #9398C7",
"U. c #8C9FEE",
"Y. c #8198F0",
"T. c #98ABF5",
"R. c #92A4EC",
"E. c #A4B3EE",
"W. c #ACBBF6",
"Q. c #B2BEED",
"!. c #ECBFC0",
"~. c #B4C2F6",
"^. c #D5CCC2",
"/. c #DED6CC",
"(. c #ECC5C7",
"). c #F8C9CB",
"_. c #F4C7C8",
"`. c #E4D8CB",
"'. c #E8D9D6",
"]. c #F7D7D9",
"[. c #F6E3D4",
"{. c #CDD5ED",
"}. c #DDEDF7",
"|. c #EBE5E4",
" X c #EDEDED",
".X c #E7E6E7",
"XX c #F2EEEE",
"oX c #F8E9E8",
"OX c #EAF0EF",
"+X c #F5F2EA",
"@X c #F9F4EC",
"#X c #EBF2F2",
"$X c #EBFEFD",
"%X c #F4F4F4",
"&X c #F9F6F6",
"*X c #FCFAF4",
"=X c #F6F7F9",
"-X c #F5FDFD",
";X c #FAFFFF",
":X c #FCFCFC",
">X c #FFFFFF",
",X c #FDFFFF",
"<X c #FBFBFB",
"1X c #EBECF0",
/* pixels */
">X X=X=X+X>X X>X%X&X=X X>X X&X&X#X:X|.:XXX=X&X X>X X<X+XXX<X X>X X<X&X%X>X X>X#X&X&XXX>X X<X%X%X:X X",
"%X<X%X%X=X#X<X%X=X=X%X<X%X<X%X&X&X%X<X-X<X<X-X<X-X<X-X-X-X-X<X#X=X%X%X=XXX<XXX<X%X%X<X#X<X#X=X=X+X:X",
"&X%X&X%X%X=X%X&X%X%X&X%X&X#X=X%X&XoXY I U I I U I Y I U I v.%X&X%X&X%X%X&X%X=X%X&X=X%X&X%X&X%X%X&X#X",
"&X%X%X=X%X&X%X&X%X%X&X%X&X%X&X=X-X|.5 3 3 3 3 3 3 4 4 3 < f -X<X-X<X-X-X-X%X=X%X%X&X%X&X&X=X%X%X&X%X",
"XX-X%X%X=X%X<XXX&X&X%X<XXX&X&X|._.F.i e r e r r r r r r 5 C ).S._.(._._.!.<X%X=X%X%X<X%X<X%X&X&X%X>X",
">X+X=X&X%X<X X<X#X&X<X X>X X>Xn.< w e 6 e e w w e e e e e w 5 5 5 5 3 3 i '.<X%X=X=X X>X.X<X%X%X<X X",
" X<X%X%X<X X>X#X=X&X%X>X X<X-Xb.3 r 6 e r 6 w w w w e e e 6 e e e e e 5 i oX#X<X%X%X<X#X>X X&X=X X>X",
"<X%X=X&X%X<XXX<X%X%X&XXX<X X>Xc.% , > > , > v | } } | v % g } } F.].)._.].XX<X+X=X&X+X<X%X<X%X%X<X X",
"%X=X%X%X&X%X=X%X&X%X%X=X%X>X>Xl.. @ & & @ + l V.O.O.V.m + : +.O.@X-X<X:X<X<X%X=X%X%X=X%X<X%X=X&X%X=X",
"%X&X%X&X%X%X&X%X%X&X&X=X<XZ.l.A n n * & x N F O.o.o.+.n O : ..@.J.L.P.`.K.%X%X=X&X%X&X%X&X%X%X%X&X&X",
"<X#X=X&X%X<X%X<X%X%X=XXX>Xc   h B. .= $ ' B.N.o.o.o.N.n O : O.O.X.#.X.#.O.+X<X%X&X=X%X<X+X<X%X%X<X#X",
" X<X%X%X<X X>X#X=X=XXX<X=XZ o k +.] = & F  .[ O.O.o.+.m * :  .[ o.O.o.o.M.@X|.&X%X%X:X X>X#X=X&XXX>X",
">X%X=X&X#X>X X<X%X%X<X X:XZ . k +.] * * = & M +.o.O.O. . .' * * ` O.o.o.@.O.O.`.-X&XXX>X X<X%X%X<X X",
" X<X%X%X<X X<XXX=X=X%X=X=XZ o k B.] & @ & + j +.o.O.O.O.B.] & & { N.N.N.+.X.#.[.=X%X<XXX<X%X=X=X%X>X",
"<X%X&X&X%X=X%X&X@X=X%X%X>XZ O : k k F ! ! ~ ` O.@...N.F k j * * j M z x m `.[.+X=X=X#X<X%X=X&X%X&X#X",
"&X%X%X%X%X&X%X&X=X%X=X+X>Xb . $ . $  .N.+.N.+.@.@.o.N.M . O O & o o o . * XX<X%X%X=X%X&X%X%X%X%X&X%X",
"%X&X%X%X&X%X<X%X=X&X%X&X&Xl.D S S H  .o.o.o.o.O.O.o.+.F h k j j k k c Z S @X%X&X%X%X&X%X<X%X&X&X%X<X",
">X#X&X&X#X<X X<X%X&X<X#X<X=X>X>X>X>XM.o.O.O.O.@.O.@.O.O.+.+.+.+.N.@.J.:X>XXX>X#X&X=X#X<X#X=X%X%X<X X",
" X<X%X%X<X X>X X=X&X+X<X X<XXX%X<X|.M.X.O...o.@.o.o.o.o.X.o.o.o.O. .J.<X X>X X<X%X%X:X X>XXX&X=XXX>X",
">X X<X=XXX>X X<X%X%X<X X>X X<XD.f J f a s.w.s.a s s s s s s p p A.+XoX%X&XXX<X%X%X<X+X:X X<X%X%X<X X",
"%X=X%X&X=X%X<X%X&X%X%X=X#X<X-XA.4 5 w 7 %.:.p.7 w 5 w 6 0 7 w 5 ].<X-X>X-X<X%X&X%X%X=X%X&X%X%X=X%X=X",
"&X%X&X%X%X&X&X%X%X&X%X&X=XD.C.L 5 i r 9 p.:.p.8 r r 6 V i.B e 5 U n.b.v.b.XX%X%X&X=X&X&X&X%X&X&X&X&X",
"=X%X&X%X%X&X%X<X%X%X=X%X<XJ < 5 e e w 9 p.>.p.0 w e 2 i.>.<.6 e 3 3 3 < r XX:X%X%X&X#X<X#X&X%X%X&X#X",
"XX<X%X%X<XXX<X#X&X&XXXoX|.J 5 i e e r 9 p.:.a.i u u u u.:.&.6 e r r r w f ].'.@X=X%X<XXX:X%X&X=X%X>X",
">X#X=X&X#X>X X<X+X-X).e p e e w e e r 9 a.w.5.5.5.5.5.5.w.&.e t w e r r w i 5 A.<X&X#X>X X<X%X%X<X X",
" X<X%X%X<X X>XXX=X<XS.5 5 w w e e 6 5 2 %.-.9.7.7.7.3.9.-.<.7 9 6 5 5 5 5 5 4 D.-XXX<X X>X#X&X=XXX>X",
"<X#X&X&X%X<X%X=X%X=X+X(.(.S.(.v.5 d %.%.) W z.9.7.3.9.k.W ) %.a.V 7 L (.S.S.S.|.-X<X%X=X%X&X%X%X<X X",
"&X&X&X%X%X%X&X%X%X=X%X#X#XOX$XC.1 q 7.-.E R $.8.3.3.;.^ R Q w.:.V 1 f.$XOX#X#X%X%X&X&X%X%X%X&X%X%X&X",
"%X&X%X%X=X%X&X%X=X*XXX.X.X.XOXS.K f.5.q.z.$.z.9.7.7.9.k.$._ 7.7.d.P F. X|..X.X&X&X%X=X%X<X%X&X&X%X<X",
">X#X=X&X%X<X X<X%X%X=X.X X.X XOX$X}.e.7.9.8.8.7.7.7.7.9.;.8.3.q.{.$X}..X X X.X X%X=X+X<X X<X%X%X<X X",
" X<X%X%X:X#X>X X<X%X X X.X X|..X|.{.e.7.7.3.7.7.7.7.7.7.e.3.7.9.{..X.X X.X X.X<X%X%X<X X>X X=X&X#X>X",
"<X+X&X&X%X<XXX<X%X%X=X.X X.X+X~.t.h.7.7.7.7.7.e.3.e.7.7.7.7.7.5.r.e.R.+X.X X.X X&X<X#X>X X<X&X%X<X X",
"#X<X%X%X<X#X<X%X&X&X X X.X.X+XE.=.7.7.7.7.7.7.=.=.q.=.7.7.7.7.7.7.=.U.+X.X X.X=X=X%X<X#X<X%X%X&X#X<X",
"&X=X&X&X%X&X%X&X%X&X%X X&X.X*XW.4.3.7.7.7.7.g.Q.W.E.~.j.7.5.7.3.7.4.U.@XXX X%X%X&X%X%X&X%X&X&X%X&X%X",
"&X%X&X%X%X=X%X&X%X%X=X%X=X-X>XW.8.0.0.0.9.*.Y.*X:X*X:XT.*.9.0.0.0.;.T.<X<X=X&X%X%X=X%X<X%X&X%X%X<X%X",
" X-X%X%X<X X<X%X=X&X%X<XXX`.`.I.,.2.2.2.y.g.T.:X X-X@XE.t.g.2.2.2.,.I.`.^.:X#X<X%X%X<X X<X%X=X=X X>X",
">X%X&X&X#X>X X>X%X%X<X X>X: & - * & * $ Z.>X&X+X>X X<X%X:X`.& * * * * $ : |.:XXX&X=X+X>X X<X&X%X>X X",
" X<X%X%X<X X>X X=X%X%X>X=Xl O = * & * $ H.<X X<X X>XXX%X>XG.& * * * * & : &X-X<X%X%X<X X>X X&X=X X>X",
"<X%X&X=X%X<X X<X%X<X'.b Z ; = = = = = $ Z.>X%X#X<X#X<X%X<X/.& = = = = * - b c G.<X=X#X<X%X=X%X%X<XXX",
"%X&X%X%X&X%X=X%X%X>XZ.  . o O O # # $ . Z.>X%X&X%X&X%X%X>X^.o o O o o # o .   Z.>X%X=X%X&X%X%X&X%X<X",
"%X=X%X%X=X%X=X&X&X-X/.A / A / A A / A A /.<X%X&X&X=X%X%X-X'.A / A / / A / / A `.<X%X=X%X=X%X&X%X%X&X",
"<X+X=X%X%X<XXX:X%X%X<X>X>X<X>X>X>X>X<X>X%X&X=X%X<X X<X&X%X<X<X>X-X>X>X<X<X<X>X=X&X=X%X<X+X=X%X%X<X#X",
" X<X%X%X<X X>X X&X&X#X<X.X<X X%X&X.X>X.X<X%X%X<X X>X+X=X=X#X<X.X<XXX%X&X X<X.X<X%X%X<X X>X+X=X=X X>X"
};
