/* XPM */
static char *What_Are_You_Working__On__2015______Page_59__3_1653577994[] = {
/* columns rows colors chars-per-pixel */
"50 50 203 2 ",
"   c #1B130E",
".  c #17120E",
"X  c #121313",
"o  c #1B1612",
"O  c #1C1916",
"+  c #171A19",
"@  c #1C1C1C",
"#  c #191718",
"$  c #2D0F00",
"%  c #2D1302",
"&  c #2B190D",
"*  c #251408",
"=  c #351500",
"-  c #351B05",
";  c #3C1D03",
":  c #331C0B",
">  c #391E0B",
",  c #3A1500",
"<  c #241C15",
"1  c #2C1D13",
"2  c #231E1C",
"3  c #291E1A",
"4  c #201710",
"5  c #321F11",
"6  c #1E201F",
"7  c #3D220B",
"8  c #372008",
"9  c #2D2017",
"0  c #22211E",
"q  c #2C221C",
"w  c #332215",
"e  c #3C2412",
"r  c #3E2816",
"t  c #33251B",
"y  c #39271A",
"u  c #34281F",
"i  c #3C2A1C",
"p  c #1D1E21",
"a  c #221F20",
"s  c #1E2122",
"d  c #242423",
"f  c #2B2523",
"g  c #262827",
"h  c #2A2926",
"j  c #242629",
"k  c #2A2729",
"l  c #262A29",
"z  c #2C2C2C",
"x  c #312722",
"c  c #352A23",
"v  c #3A2C23",
"b  c #322D2B",
"n  c #382F29",
"m  c #2F312F",
"M  c #3D3027",
"N  c #34312E",
"B  c #3C322B",
"V  c #2D2E32",
"C  c #332F31",
"Z  c #2E3132",
"A  c #333333",
"S  c #3A3634",
"D  c #3B3936",
"F  c #353639",
"G  c #393738",
"H  c #36393B",
"J  c #3C3C3B",
"K  c #363837",
"L  c #421F04",
"P  c #412107",
"I  c #43250C",
"U  c #47290F",
"Y  c #4A290D",
"T  c #49260D",
"R  c #522C0E",
"E  c #432612",
"W  c #452A14",
"Q  c #4B2C15",
"!  c #432C1B",
"~  c #4A2F1B",
"^  c #502E14",
"/  c #4C3015",
"(  c #4D321B",
")  c #463019",
"_  c #53341C",
"`  c #5A351A",
"'  c #5D391E",
"]  c #593516",
"[  c #633B1D",
"{  c #443224",
"}  c #4B3423",
"|  c #43342A",
" . c #49372A",
".. c #4C3A2C",
"X. c #4F3A27",
"o. c #523621",
"O. c #553923",
"+. c #5B3D24",
"@. c #533C2B",
"#. c #5B3E29",
"$. c #593620",
"%. c #413934",
"&. c #4D3D33",
"*. c #423E3B",
"=. c #483F3A",
"-. c #403732",
";. c #533F31",
":. c #613E23",
">. c #5E4125",
",. c #5D412B",
"<. c #564029",
"1. c #4F4137",
"2. c #43413E",
"3. c #4D423B",
"4. c #544234",
"5. c #5C4433",
"6. c #55443A",
"7. c #5A4639",
"8. c #5C483A",
"9. c #5C4A36",
"0. c #644226",
"q. c #694124",
"w. c #63442C",
"e. c #6B452B",
"r. c #69482E",
"t. c #624531",
"y. c #654933",
"u. c #6B4C34",
"i. c #624C39",
"p. c #6A4E3C",
"a. c #714D33",
"s. c #6F5139",
"d. c #71533B",
"f. c #3B3E41",
"g. c #413F40",
"h. c #3E4143",
"j. c #444443",
"k. c #4A4643",
"l. c #454846",
"z. c #4C4945",
"x. c #444649",
"c. c #494748",
"v. c #464949",
"b. c #4B4B4B",
"n. c #544B45",
"m. c #534D4A",
"M. c #594D44",
"N. c #4E504F",
"B. c #53514E",
"V. c #5A534E",
"C. c #5E5047",
"Z. c #4C4F51",
"A. c #514F50",
"S. c #4E5051",
"D. c #545453",
"F. c #5A5553",
"G. c #5B5956",
"H. c #545759",
"J. c #575959",
"K. c #5B5C5B",
"L. c #565855",
"P. c #63574D",
"I. c #715745",
"U. c #635952",
"Y. c #625E5C",
"T. c #6A5E56",
"R. c #5E605F",
"E. c #62605E",
"W. c #6C615B",
"Q. c #70645C",
"!. c #5E5F61",
"~. c #615F60",
"^. c #5E6264",
"/. c #646463",
"(. c #696866",
"). c #6A6B6B",
"_. c #676669",
"`. c #746A64",
"'. c #716D6C",
"]. c #6E706F",
"[. c #7A726C",
"{. c #6C6D70",
"}. c #6F7170",
"|. c #737373",
" X c #7A7675",
".X c #7A7977",
"XX c #747679",
"oX c #767978",
"OX c #7B7B7B",
"+X c #797778",
"@X c #817D7C",
"#X c #84756E",
"$X c #7D7E80",
"%X c #7E8181",
"&X c #838384",
"*X c #86878A",
"=X c #8A8A8C",
"-X c #898885",
";X c #948E8A",
":X c #99999A",
">X c #909193",
",X c #A79A91",
"<X c #A5A5A3",
/* pixels */
"j.%XoXR././.E.(._.U.;X~.~.@X'.{._. X XK.g.:X*X$X_.{.$X*Xg._.~.H.E.E.R.E.E.W.(.(.).(.OX).x.J.{.!.$XA.",
"|.h.-X&X(.R.K.E.~.A.'.*Xb @XF.~.~.m.g.A.Z.*X^.Z.Z.Z.$X$XH.$X#X+XOXOXOX.XOXOXoXoX=XOX=X:Xv._.=X>Xg.J.",
"%X&Xm /.2.J l.A f.g.f.|.g.F.g.g.*.g.A.g.c.$XH.f.f.f.Z.$Xg.~.H.~.B.D.B.B.N.b.l.j.v.K.h.S.J.H.$XF &XOX",
"l.).oXg (.*.*.l.g.g.C Z.~.g.H.g.g.A.g.g.x._.H.f.Z.f.g.$Xg.g.C g.2.j.2.2.h.2.J J J K./.h.|.V z %X:X/.",
"R.R.].S.K ).K }.~.C c.Z.C b.g.g.V.g.g.g.g.g.c.g.g.g.g.$Xg.g.S g.*.J J D D D D D h.A z /.K.v.K./.|.K.",
"D.(.2.L.S.v.R.K g.C c.g.C g.G -.C g.g.g.f.G !.c.f.F f.XXg.g.g.g.z.2.2.l.j.2.j.l.K z R.G.L.+X/.b./.J.",
"b.(.L.m R.l.^.R.C Z.g.g.H.S %.g.=.g.g.*.g.H.@XF f.f.g._.g.M.U.m.B.m.m.m.B.B.m.N.K.&XG.j.&XL.c.(.|.A.",
"L.R.L.L.(.OXh.L.XXD.b.F.m.G.V.A.U.g.P.P.F.g.+XG G G -.F.-.g.T.g.n.m.V.V.F.V.F.V.G.b.B..Xj.K.XXx./.b.",
"m.L.N.L./.h.&Xd Z z S b b -.| | | x c -.a 3 Y.g.%.G g.#X&.x | n u t q 9 q q q 0 2 < G.G.l.2.j.x.K.*.",
"L.R.L.6 l l.XXJ d 2 A n b | { c ! x v -.v v W.U.C.g.g.Q.-.5 t 1 & & u M B { n n q 0 V.V.k.2.j.x./.f.",
"l.L.L.m H v.R.2.f h =.3.&.;.@...&.;.;.;. .5 | t 5 1 & 5 1 ! ;.;.@.4.9.7.4.1.1.3.%.c F.l.D S J j./.J ",
"l./.v.J h.D R.L.f x &.6.@.;.#.#.o.@.#.;.;.{  .! { ;.;.;.;.;.#.} ( } ( ( ( } ....9 q m.3.J J j.D.D.d ",
"l.(.b.m m K E.F.x x  ...} o.^ $.#.#.#.~ @.~ } } ~ ! ~ E $.~ $.#.[ [ >.0.5.,.<. .u M U.m.*.m z K J D.",
"j.N.L.A A f.L.3.b u  .@.} ` [ :.^ ^ ( Q :.#.#.#.#.#.I.#.I.:.:.:.q.[ :.+.+.+.X.X.w u n.*.*.2.b.).<X_.",
"D.b.N.m K K }.R.x 9 } o._ :.` [ a.:.a.:.d.#.#.:.#.$.$.^ ` :.:.:.[ R ] ' +.w.y.i.{ | n.B D j.b./.%XJ ",
"D L.b.m m J <Xz.c t @.5.r.r.:.[ [ $.:.:.:.:.#.#.#.$.a.:.:.:.:.` R ] [ 0.q.0.<.O.w M 8.2.z.z.J j.).c.",
"D B.b.h N z.(.z.n & 1 = E ; L , L L L L ; > P T P I P P 7 P L 7 P Y ; = T P - e * 3.%.S D D b l./.b.",
"2.2.2.N D D V.3.b 1 &.;.#.:.a.a.d.d.u.#._ Q W W O.O.w.r.u.u.u.u.0.#._ :.a.e.#.9.i 3.z.*.b N N *.G.j.",
"D 2.j.m h h z.z.n 1 #.o.o.o.` ^ #.:.#.:.r.r.y.u.O.+.+.#.#.#._ _ O.+.+._ ] ` o.} i B G.z.S S D D b.J ",
"K 2.*.h m z j.2.n x g.i.;.t.y.:.^ ( ( $.Q Q Q Q ` O._ O.' O.O.+.,.,.w.:._ Q O...9 q m.J K N N S Z.j.",
"2.K m m h.z K J a v  ...} ( $.:.#.#.:.t.:.#.+.+./ _ _ ~ / _ _ _ +.! Q +._ W } 6.n N 2.z J S N h.j.G ",
"l.R.R.L.^.Z.K./.@X#X| r ! W W E E Q Q ( $.O.+.+.#.+.+.+.+.$.O.o.O.O.O.O.>.t.9.4.q N Z l F V z m A z ",
"h.oX%XR.{.{.+X'.;X;Xt t 5.t.t.#.:.:.#.+.O._ ~ Q _ _ / _ _ +.>.,._ 5.,._ O.,.8.P.V.K.B.^.H.S./.K.)./.",
"H S.h.H H.b.x.A %.'.1  .I.y.I.d.d.d.p.d.d.d.d.u.w.#.O._ / _ O.+.t.<.O.i.y.r 4.,X-X%X^.XXZ.H.*X+XK.D.",
"h.h.l h.J.f.f.K C V.| 5 } o.$.~ / Q I T U Y W W Q Q W I I 7 P 7 E W _ W ( r 5 Q.x.F Z f.H J D J b.x.",
"H H.L.h.h.f.h.K %.M.t * y E E E T E W Q Q W I ; % = 7 I I I I T > - E I ~ ! 9 P.b.Z f.f.x.v.J m b.*.",
"H L.^.N.J l.h.J %.z.v r ;.t.t.w.y.y.r.w.r.w.w.,.+.t.d.d.s.u.u.s.I.u.y.+.,.{ & 3.*.A H f.f.K A S b.J ",
"6 6 m l 6 6 6 6 o < * & o.$.( $._ / ~ Q Q _ _ _ ` O.#.' _ _ / _ / Q _ _ ,...y 3.c.H f.f.Z A S *.x.J ",
"h X 0 0 h 0 m 0 3 q 1 5 W W T ] Q _ +.+.>.+.+.O.O._ _ _ _ _ _ _ 0.>.w.#.,.} y B Y.j.f.H J j.S S k.j.",
"h h N 6 h g D h 3 c  .} O.$.( +.:.#.#.+.O._ _ ( _ _ _ O.#.,.>.#._ _ _ _ O.{ i M b # p s 2 d O < z d ",
"h 2.*.0 N 0 2.B < v 6.5.t.p.:.q.>.+._ / Q Q _ _ _ O._ O.O.O._ _ _ ' _ ' O.@. .B 0 s F H m h n =.J m ",
"h D N 6 D 6 %.N 4 1 { E E ( T Y W ~ ( $.O.>.,.y.t.t.w.,.O.o.$.O.>.' ] _ O.<.@.| f 0 Z A z h b D J z ",
"h S D h N d J N 3 u 4.4.,.e.0.0.w.y._ <.<.@.r ~ @.~ ! ! ) <.y.s.w.q.r.>.<.<.<.1.t 0 *.A m m m J F z ",
"h *.2.N N d D S o 1 u 8 - 8 8 P 8 8 8 % 7 % - > $ % : > e U r 7 Y P P 8 8 e ) { w   B m A A m m J z ",
"f J h.m z 6 N S < u 4.9.y.u.0.0._ ) O.( O.o.i.i.p.p.p.y.9.>.<.>.>.>.>.] ( ) ! i w 0 D n S Z m l F z ",
"d J D z m 0 N D < q { i W / / ] u.,.>.,.e ( o.O.o.o.~ ~ / / _ >.] O.>.>.,.,.4.4.i u M.2.A z d Z J z ",
"z j.K m l h h D f q | i e W I / / / _ >.T #.t.y.#.t.t.:.$.W I P U U W W ( ) ..4.v x m.*.A k k z J z ",
"z v.Z h j j g N . < | { { o.( _ _ ( _ ) ~ E o.W o.o.O.#.,.t.t.r.+.<.O.( { ! ! M 5 3 =.v b A z z J A ",
"j l.l s s j d *.3 q v i y ~ } @.( ( } E @.o.O.} ~ ! E > 7 W ) / / <.X.4.@.......x 3 -.a k C b k J z ",
"j l.Z l h m m N.O f =.=.4.5.4.5.7.i.} ..@.8.} .... .i y r i i ! <.) { {  .1.6.M.v q g.x a a a V J V ",
"m H m l ]./.O J < 2 v v c v 5 { 9 M i w M 9 `.#XQ.T.P.P.9 i  .i w : w y y q t v < a -.k C g.g.k S C ",
"j l.Z l f.J 0 0 o O a 3 1 c 5 3 < q q 0 u . =.z.3 q t 2.o q n q B v c v B | c q x   x a g.'.k g.F A ",
"+ h.d A 6 6 z O A %.F.F.F.T.U.U.`.G.L.j.2.d k z C z d h.0 *.L.G.M.U.U.P.M.m.z.2.g.g.t C f a -.# D A ",
"d J 6 v.A g K S j.k.F.m.g.*.G g.(.l.v.H J d d Z p p @ A 6 j N m f S 3.D c f q 0 x g.-.a C C k g.A A ",
"O z X S h @ # J S 0 6 6 a 2 k b.m X s p p p p f.k j p F d @ d 6 q 0 0 h h 0 0 0 C z k j a C g.C A Z ",
"@ K k l f h d B.E.h.m h k d s Z l @ l j p p p F V j p V s + j z h 6 0 h h 6 0 h K._.a k C # C f.A z ",
"# A h @ 0 b h D K d s s l l @ s s @ s s p p p V p p j f.K s s d g h m l d @ 6 j k X a j a a # k V A ",
"b b a a h h z @ 6 6 l s s l s j j j d p p p k Z V j j F z # @ d g h 0 6 g m z d d A j a C C C a A A ",
"z k k k z z z V k k z z z z z z d d d a d p d b j k k k d d k h m m m m m z m z z z z k h k k k k h ",
"j d @ d d d d d 2 d s 6 6 s 6 d d d d d d 2 @ j a a d d @ @ a a d d j h d g d f k d d k d d d k d k "
};
