/* XPM */
static char *_18070395f464a45dd64d85bcf20096aqp24EtwtWu8GRjra[] = {
/* columns rows colors chars-per-pixel */
"50 50 111 2 ",
"   c None",
".  c #D42929",
"X  c #D42A2A",
"o  c #D42B2B",
"O  c #D42C2C",
"+  c #D42D2D",
"@  c #D42E2E",
"#  c #D42F2F",
"$  c #D43131",
"%  c #D43232",
"&  c #D43333",
"*  c #D43434",
"=  c #D43636",
"-  c #D53D3D",
";  c #D53E3E",
":  c #D53F3F",
">  c #D54040",
",  c #D54141",
"<  c #D54242",
"1  c #D54343",
"2  c #D54747",
"3  c #D54848",
"4  c #D64949",
"5  c #D64A4A",
"6  c #D65050",
"7  c #D65151",
"8  c #D65454",
"9  c #D65656",
"0  c #D65757",
"q  c #D65858",
"w  c #D65959",
"e  c #D65A5A",
"r  c #D75E5E",
"t  c #D75F5F",
"y  c #D76060",
"u  c #D76262",
"i  c #D76363",
"p  c #D76565",
"a  c #D76666",
"s  c #D76767",
"d  c #D76969",
"f  c #D76A6A",
"g  c #D86E6E",
"h  c #D86F6F",
"j  c #D87474",
"k  c #D87676",
"l  c #D87777",
"z  c #D87878",
"x  c #D87B7B",
"c  c #D87C7C",
"v  c #D87D7D",
"b  c #D97E7E",
"n  c #D97F7F",
"m  c #D98080",
"M  c #D98282",
"N  c #D98383",
"B  c #D98484",
"V  c #D98888",
"C  c #D98A8A",
"Z  c #D98B8B",
"A  c #D98C8C",
"S  c #DA9090",
"D  c #DA9191",
"F  c #DA9393",
"G  c #DA9494",
"H  c #DA9595",
"J  c #DA9696",
"K  c #DA9797",
"L  c #DA9898",
"P  c #DA9999",
"I  c #DA9D9D",
"U  c #DA9F9F",
"Y  c #DAA1A1",
"T  c #DBA3A3",
"R  c #DBA4A4",
"E  c #DBA7A7",
"W  c #DBA8A8",
"Q  c #DBACAC",
"!  c #DBADAD",
"~  c #DBAFAF",
"^  c #DCB3B3",
"/  c #DCB4B4",
"(  c #DCB5B5",
")  c #DCB6B6",
"_  c #DCB7B7",
"`  c #DCBBBB",
"'  c #DCC2C2",
"]  c #DCC3C3",
"[  c #DDC5C5",
"{  c #DDC6C6",
"}  c #DDC7C7",
"|  c #DDC8C8",
" . c #DDCACA",
".. c #DDCBCB",
"X. c #DDCCCC",
"o. c #DDCECE",
"O. c #DDCFCF",
"+. c #DDD2D2",
"@. c #DDD3D3",
"#. c #DED6D6",
"$. c #DED7D7",
"%. c #DED8D8",
"&. c #DED9D9",
"*. c #DEDADA",
"=. c #DEDBDB",
"-. c #DEDCDC",
";. c #DEDDDD",
":. c gray87",
">. c #DEDFDF",
",. c #DEE0E0",
"<. c #DEE1E1",
/* pixels */
"# # # # # # # # # F ,.,.m # # # # # # # # # # # # # # # # # # # $ * ! <.-.z + + $ + $ + $ + $ + $ + ",
"# # # # # # # # # F ,.,.m # # # # # # # # # # # # # # # # # # # + * ^ <.<.z + + + $ + $ + $ + $ + $ ",
"# # # # # # # # # F ,.,.m # # # # # # # # # # # # # # # # # # # $ * ^ ,.-.z + $ $ + $ + $ + $ + $ + ",
"# # # # # # # # # K ,.,.m # # # # # # # # # # # # # # # # # # # + * ! ,.<.z o + + $ + $ + $ + $ + $ ",
"# # # # # # # # # F ,.,.m o # # # # # # # # # # # # # # # # # # $ * ! ,.,.z + + $ + $ + $ + $ + $ + ",
"# # # # # # # # # F ,.,.m o # # # # # # # # # # # # # # # # # # + * ^ ,.>.k + $ + $ + $ + $ + $ + $ ",
"# # # # # # # # # F ,.,.B # # # # # # # # # # # # # # # # # # # $ * ^ ,.>.z + + $ + $ + $ + $ + $ + ",
"# # # # # # # # # K ,.,.m o # # # # # # # # # # # # # # # # # # + * ! ,.>.z + + + $ + $ + $ + $ + $ ",
"# # o o # # o # o F ,.,.m o o # o # # # o # o # o o # # o # o o + $ ! ,.>.k o + + + + + o + o + + + ",
"b b m m m m b m b ( ,.>.! b m m b b b m b m b b m b m m b m m b m B } >.>.E b m m m m m m m m m N c ",
",.,.,.,.,.,.>.>.,.,.>.>.,.,.,.>.,.,.,.,.,.,.>.>.,.,.,.,.,.,.,.,.,.,.>.>.>.,.,.,.,.,.,.,.,.,.>.>.<.<.",
",.,.,.,.,.,.,.>.,.,.,.,.,.,.,.,.,.,.,.,.,.,.>.>.>.,.,.,.,.,.,.,.,.,.,.>.,.,.,.,.,.,.,.,.,.,.>.>.-.-.",
"K K F K F K F K K K F K F K K K Q E E E E ( >.>.#.! E E Q E Q E Q E E Q E Q E Q Q Q E E Q E ^ >.<.-.",
"# # # # o # # # # # # o # # o # & & & & & y *.>.' : & & & & & & * $ $ $ $ $ $ $ $ $ $ $ $ $ q #.<.-.",
"# # # # # # # # # # # # # # # # # # # # o t *.,.' : # # # # # # $ + $ + + + + $ + $ + $ + + 8 *.-.-.",
"# # # # # # # # # # # # # # # # # # # # # y *.>.' : o # # # # # + $ + $ + $ $ + $ + $ + $ + q #.<.-.",
"+ $ + $ + $ + $ + $ + $ + $ + $ # # # # o t *.,.' : + $ $ + $ + + $ + $ + $ + $ + $ + $ $ + p *.>.>.",
"$ + $ + $ + $ + $ + $ + $ + $ + # # # # # t *.>.' : + + + $ + $ $ + $ + $ + $ + $ + $ + + o d >.>.>.",
"+ $ + $ + $ + $ + $ + $ + $ + $ # # # # o t *.,.' : o $ $ + $ + + $ + $ + $ + $ + $ + $ $ + p >.>.>.",
"$ + $ + $ + $ + $ + $ + $ + $ $ # # # # # y *.>.} : + + + $ + $ $ + $ $ $ + $ + $ + $ + + + d *.*.>.",
"+ + + + $ + + + + + + + + + + + # o # # o t *.>.' : + + + + $ + $ + + + + + + $ + + + + $ o d >.>.>.",
"5 7 7 7 5 7 7 7 5 7 7 7 7 5 4 1 < < 1 < < g *.>.} 7 < 1 1 1 1 1 1 1 1 1 1 1 1 1 1 1 1 1 < < j *.>.>.",
"@.@.@.@.@.@.@.@.@.@.@.@.#.+.| | | | | | } o.>.>.*.| | | | | | | | | ]  . . . .] | | | | } | o.>.>.>.",
",.,.,.,.,.,.,.,.,.>.,.,.,.,.,.>.,.,.,.,.,.,.>.>.,.,.,.,.,.,.,.,.,.,.,.>.>.>.,.>.,.,.,.,.,.,.>.>.>.*.",
"] ] ' ' ' ' ' X.o.*.>.>.#.o.+.o.o.+.o.+.o.+.o.+.+.o.+.o.+.o.+.o.X.@.>.>.>.*.*.#.#.*.#.*.#.*.#.*.#.#.",
": : : : : : > 3 4 I >.,.Y 4 4 4 4 4 4 4 4 4 4 4 4 4 4 4 4 4 4 4 4 8 ` ,.*.N q q q q q q q q q q q q ",
"+ + + + + + + + + K ,.,.K o + + + + + + + + + + + + + + + + + + + $ ^ ,.*.y o + + o + o + o + o + o ",
"$ + $ $ $ $ + $ + K <.,.K + + $ + $ + $ + $ + $ $ + $ + + $ + $ $ * ! ,.*.p + + $ + $ + $ + $ + + $ ",
"+ $ + $ + $ + $ + K ,.,.K + $ + $ + $ + $ + $ + $ + $ + $ + $ + + * ^ ,.*.p + + + $ + $ + $ + $ + $ ",
"$ + $ + $ + $ + + F ,.,.K + + $ + $ + $ + $ + $ + $ + $ + $ + $ $ * ! ,.>.p + $ $ + $ + $ + $ + $ + ",
"+ $ + $ + $ + $ + K ,.,.K + $ + $ + $ + $ + $ + $ + $ + $ + $ + + * ^ ,.*.p + + + $ + $ + $ + $ + $ ",
"$ + $ + $ + $ + + K ,.>.K + + $ + $ + $ + $ + $ + $ + $ + $ + $ $ $ ! ,.*.p + + $ + $ + $ + $ + $ + ",
"+ $ + $ $ + $ + + H <.<.H + $ + $ + $ + $ + $ + $ + $ + $ + $ + $ * ! ,.*.p + + + $ + $ + $ + $ + + ",
"* * * $ * * * * * H <.<.H * * * $ + + $ + $ + $ + $ + $ + $ + $ + * ^ ,.>.y o + + + + + + + + + + + ",
"! ^ ^ ! ! ! ^ ! ^  .-.<.X.~ ~ ~ E I I I I I I Y I I I I Y I I I I K ] ,.>.Y Z A Z Z Z Z Z Z Z Z Z Z ",
"<.,.,.,.<.<.<.<.-.<.<.-.<.<.<.<.,.,.,.,.,.,.,.<.,.,.,.,.<.,.,.,.,.,.,.,.>.>.,.,.,.,.,.,.,.,.,.,.,.,.",
"-.=.=.=.=.=.=.=.=.=.=.=.=.=.-.<.>.>.>.>.>.>.>.>.,.,.,.>.>.,.,.,.,.,.,.,.,.,.,.,.,.,.,.,.,.,.,.>.*.>.",
"p p p p p p p p p p p p p d z z z z z z k K *.,.] c k z z B A Z A A Z Z A A A A A Z A Z F I ` >.>.>.",
"+ o + o + o + o + o + + + + + o + + o + o t *.,.) * + o + o + + + + + + + + + + + + + + + o c ,.>.>.",
"+ $ + $ + $ + $ $ + + $ + + $ + + $ + + o t *.,.) * + $ + $ + $ + $ + $ $ + $ + + $ $ + $ + c ,.*.>.",
"+ $ + $ + $ + $ + $ + $ + $ + $ $ + $ + + y *.,.) = $ + $ + $ + $ + $ + $ + $ + $ + $ + $ + z ,.>.>.",
"$ + $ + $ + $ + $ + $ + $ + $ + + $ + $ + y >.,.) * + $ + $ + $ + $ + $ + $ + $ + $ + $ + + c ,.>.*.",
"+ $ + $ + $ + $ + $ + $ + $ + $ $ + $ + + y *.,.^ * $ + $ + $ + $ + $ + $ + $ + $ + $ + $ + c ,.>.>.",
"$ + $ + $ + $ + $ + $ + $ + $ + + $ + $ o y *.,.) * + $ + $ + $ + $ + $ + $ + $ + $ + $ + + c ,.>.>.",
"+ $ + $ + $ + $ $ + $ + + + $ + + $ + + + y *.,.) * $ $ + $ + + $ + $ + $ + $ + $ + $ $ $ o z ,.>.*.",
"+ + + + + + + + + + + + + + + + o + + + o t *.,.^ $ o + + + + + o + + + + + + + + + + + + o c ,.>.>.",
"S S S S S S S S S S S N c c c c c c c c z L *.>.' g d d p d d d d d p q q q q 8 8 q 8 q q 8 K >.*.>.",
"<.<.<.<.<.<.<.<.<.<.<.<.<.<.-.<.,.,.,.,.,.>.>.>.>.*.>.>.>.*.>.*.>.*.>.*.#.#.*.*.#.*.#.*.#.#.*.>.>.>.",
"-.-.>.>.>.>.>.>.>.*.>.>.*.>.>.>.>.>.>.*.>.>.*.>.>.>.>.>.>.>.>.>.>.>.>.>.*.>.>.*.*.>.>.*.>.>.>.>.>.*.",
"  <.>.>.*.>.>.*.>.>.>.>.>.>.*.>.>.*.>.>.>.>.>.>.*.>.>.*.*.>.>.>.*.>.>.>.>.>.>.>.>.>.>.>.>.>.>.*.>.>."
};
